name rise30.8019peak61.5557fall86.2505.mot
datacolumns 19
datarows 18
range 6.75498200000000 6.78331500000000
endheader
time	ground_force1_vx	ground_force1_vy	ground_force1_vz	ground_force1_px	ground_force1_py	ground_force1_pz	ground_force2_vx	ground_force2_vy	ground_force2_vz	ground_force2_px	ground_force2_py	ground_force2_pz	ground_torque1_x	ground_torque1_y	ground_torque1_z	ground_torque2_x	ground_torque2_y	ground_torque2_z	
6.75498200000000	-42.20036200000000	771.79956000000004	49.90147700000000	0.02157100000000	0.00000000000000	0.11047000000000	0.00000000000000	0.00000000000000	0.00000000000000	0.00000000000000	0.00000000000000	0.00000000000000	0.00000000000000	12.69477400000000	0.00000000000000	0.00000000000000	0.00000000000000	0.00000000000000	
6.75664300000000	-42.48404900000000	769.64726199999996	49.68512300000000	0.02090300000000	0.00000000000000	0.11038800000000	0.00000000000000	0.00000000000000	0.00000000000000	0.00000000000000	0.00000000000000	0.00000000000000	0.00000000000000	12.63603700000000	0.00000000000000	0.00000000000000	0.00000000000000	0.00000000000000	
6.75831200000000	-42.79298400000000	767.45141699999999	49.45202500000000	0.02023200000000	0.00000000000000	0.11030100000000	0.00000000000000	0.00000000000000	0.00000000000000	0.00000000000000	0.00000000000000	0.00000000000000	0.00000000000000	12.58353500000000	0.00000000000000	0.00000000000000	0.00000000000000	0.00000000000000	
6.75997900000000	-43.12768600000000	765.21312999999998	49.20226600000000	0.01955700000000	0.00000000000000	0.11020900000000	-2.09318300000000	3.68580300000000	1.15128000000000	0.00000000000000	0.00000000000000	0.00000000000000	0.00000000000000	12.53741800000000	0.00000000000000	0.00000000000000	0.15499600000000	0.00000000000000	
6.76164100000000	-43.48861900000000	762.93336699999998	48.93595000000000	0.01887700000000	0.00000000000000	0.11011200000000	-3.39453200000000	6.92281700000000	1.95572100000000	0.00000000000000	0.00000000000000	0.00000000000000	0.00000000000000	12.49782200000000	0.00000000000000	0.00000000000000	0.28262300000000	0.00000000000000	
6.76331300000000	-43.87618100000000	760.61294399999997	48.65320300000000	0.01819400000000	0.00000000000000	0.11001000000000	-4.87723800000000	10.80914500000000	2.88987400000000	0.00000000000000	0.00000000000000	0.00000000000000	0.00000000000000	12.46486500000000	0.00000000000000	0.00000000000000	0.43421200000000	0.00000000000000	
6.76497500000000	-44.29070800000000	758.25251700000001	48.35417200000000	0.01750700000000	0.00000000000000	0.10990300000000	-6.49992900000000	15.29655100000000	3.93272400000000	0.00000000000000	0.00000000000000	0.00000000000000	0.00000000000000	12.43864800000000	0.00000000000000	0.00000000000000	0.60730000000000	0.00000000000000	
6.76664500000000	-44.73247000000000	755.85257700000000	48.03902100000000	0.01681600000000	0.00000000000000	0.10979000000000	-8.21011900000000	20.30734800000000	5.05608300000000	0.00000000000000	0.00000000000000	0.00000000000000	0.00000000000000	12.41925500000000	0.00000000000000	0.00000000000000	0.79821900000000	0.00000000000000	
6.76831300000000	-45.20166400000000	753.41344200000003	47.70793400000000	0.01612200000000	0.00000000000000	0.10967200000000	-9.94770900000000	25.74013800000000	6.22646900000000	0.28141200000000	0.00000000000000	-0.06298200000000	0.00000000000000	12.40675100000000	0.00000000000000	0.00000000000000	2.12802700000000	0.00000000000000	
6.76998200000000	-45.69841900000000	750.93525099999999	47.36111400000000	0.01542400000000	0.00000000000000	0.10954900000000	-11.64945000000000	31.47818100000000	7.40761100000000	0.28420800000000	0.00000000000000	-0.06344300000000	0.00000000000000	12.40118500000000	0.00000000000000	0.00000000000000	2.58068400000000	0.00000000000000	
6.77164500000000	-46.22279000000000	748.41796099999999	46.99878200000000	0.01472300000000	0.00000000000000	0.10942100000000	-13.25379600000000	37.39926500000000	8.56325000000000	0.28680000000000	0.00000000000000	-0.06388100000000	0.00000000000000	12.40258400000000	0.00000000000000	0.00000000000000	3.03839600000000	0.00000000000000	
6.77331100000000	-46.77475300000000	745.86134000000004	46.62117300000000	0.01401900000000	0.00000000000000	0.10928800000000	-14.70547600000000	43.38569900000000	9.65985200000000	0.28921200000000	0.00000000000000	-0.06429800000000	0.00000000000000	12.41095900000000	0.00000000000000	0.00000000000000	3.48929800000000	0.00000000000000	
6.77497800000000	-47.35420900000000	743.26496299999997	46.22854200000000	0.01331200000000	0.00000000000000	0.10914900000000	-15.95921000000000	49.33309400000000	10.66887400000000	0.29146000000000	0.00000000000000	-0.06469800000000	0.00000000000000	12.42630000000000	0.00000000000000	0.00000000000000	3.92275100000000	0.00000000000000	
6.77664000000000	-47.96097600000000	740.62821399999996	45.82115500000000	0.01260200000000	0.00000000000000	0.10900600000000	-16.98218900000000	55.15700800000000	11.56837600000000	0.29356100000000	0.00000000000000	-0.06508200000000	0.00000000000000	12.44857700000000	0.00000000000000	0.00000000000000	4.32997900000000	0.00000000000000	
6.77831200000000	-48.59479200000000	737.95027800000003	45.39929600000000	0.01188900000000	0.00000000000000	0.10885700000000	-17.75520800000000	60.79701500000000	12.34386100000000	0.29552800000000	0.00000000000000	-0.06545300000000	0.00000000000000	12.47774100000000	0.00000000000000	0.00000000000000	4.70447800000000	0.00000000000000	
6.77997500000000	-49.25531100000000	735.23014400000000	44.96326200000000	0.01117400000000	0.00000000000000	0.10870400000000	-18.27251300000000	66.21816800000001	12.98838200000000	0.29737100000000	0.00000000000000	-0.06581300000000	0.00000000000000	12.51372100000000	0.00000000000000	0.00000000000000	5.04215800000000	0.00000000000000	
6.78164800000000	-49.94209900000000	732.46660599999996	44.51336300000000	0.01045600000000	0.00000000000000	0.10854500000000	-18.54056500000000	71.41011200000000	13.50201400000000	0.29910000000000	0.00000000000000	-0.06616200000000	0.00000000000000	12.55642700000000	0.00000000000000	0.00000000000000	5.34128600000000	0.00000000000000	
6.78331500000000	-50.65463700000000	729.65826000000004	44.04992300000000	0.00973500000000	0.00000000000000	0.10838200000000	-18.57601400000000	76.38432800000000	13.89083400000000	0.30072300000000	0.00000000000000	-0.06650200000000	0.00000000000000	12.60574900000000	0.00000000000000	0.00000000000000	5.60222500000000	0.00000000000000	
